Coordinates
version=1
nRows=12
nColumns=48
inDegrees=yes

Units are S.I. units (second, meters, Newtons, ...)
Angles are in degrees.

endheader
time	pelvis_tilt	pelvis_list	pelvis_rotation	pelvis_tx	pelvis_ty	pelvis_tz	hip_flexion_r	hip_adduction_r	hip_rotation_r	knee_angle_r	knee_adduction_r	knee_rotation_r	knee_anterior_posterior_r	knee_inferior_superior_r	knee_medial_lateral_r	ankle_angle_r	subtalar_angle_r	mtp_angle_r	hip_flexion_l	hip_adduction_l	hip_rotation_l	knee_angle_l	knee_adduction_l	knee_rotation_l	knee_anterior_posterior_l	knee_inferior_superior_l	knee_medial_lateral_l	ankle_angle_l	subtalar_angle_l	mtp_angle_l	lumbar_extension	lumbar_bending	lumbar_rotation	arm_flex_r	arm_add_r	arm_rot_r	elbow_flex_r	pro_sup_r	wrist_flex_r	wrist_dev_r	arm_flex_l	arm_add_l	arm_rot_l	elbow_flex_l	pro_sup_l	wrist_flex_l	wrist_dev_l
      0.49000000	     -1.56961462	     -2.59207850	      6.14069075	     -1.14562389	      0.99889860	      0.21653495	     10.06730749	      4.15200151	    -10.23968235	    -20.02181470	      0.98440452	      4.11446608	      0.01071951	     -0.40000000	      0.00000000	     -2.36629882	      0.00000000	      0.00000000	     37.78099094	     -4.52484232	     -4.39628915	   -106.31619359	      0.98440452	      4.11446608	      0.00000000	     -0.40000000	      0.00000000	    -14.92366172	      0.00000000	      0.00000000	    -21.97570232	      9.18820216	     -2.51040566	     -8.65414842	    -23.03616838	     17.05121228	     47.13481097	     79.51628441	      0.00000000	      0.00000000	    -13.96015276	    -18.73938213	     12.66038447	     57.97325468	     83.81684174	      0.00000000	      0.00000000
      0.50000000	     -1.66814290	     -2.58255859	      6.09638865	     -1.14528880	      0.99874048	      0.21672979	     10.14629063	      4.14372001	    -10.23148311	    -20.05197121	      0.98440452	      4.11446608	      0.01075439	     -0.40000000	      0.00000000	     -2.36393668	      0.00000000	      0.00000000	     37.85099333	     -4.62722148	     -4.58270050	   -106.69385700	      0.98440452	      4.11446608	      0.00000000	     -0.40000000	      0.00000000	    -14.96754365	      0.00000000	      0.00000000	    -22.01622959	      9.17822493	     -2.46819960	     -8.62885624	    -23.02498929	     17.12056445	     47.06402340	     79.88258251	      0.00000000	      0.00000000	    -13.97157786	    -18.60965747	     12.08215110	     58.18711111	     84.57381583	      0.00000000	      0.00000000
      0.51000000	     -1.71660914	     -2.59762076	      6.11699253	     -1.14485235	      0.99870173	      0.21689681	     10.10484974	      4.15509161	    -10.36675590	    -19.92499861	      0.98440452	      4.11446608	      0.01054265	     -0.40000000	      0.00000000	     -2.35831915	      0.00000000	      0.00000000	     37.82939301	     -4.66376015	     -4.59861117	   -107.05028101	      0.98440452	      4.11446608	      0.00000000	     -0.40000000	      0.00000000	    -15.04847658	      0.00000000	      0.00000000	    -22.06828373	      9.19992296	     -2.40584046	     -8.59918604	    -23.00339604	     17.35956731	     46.91461474	     79.56053943	      0.00000000	      0.00000000	    -13.85923370	    -18.72041767	     12.19951849	     58.37787131	     84.07960619	      0.00000000	      0.00000000
      0.52000000	     -1.69453481	     -2.60021473	      6.06006670	     -1.14439782	      0.99887281	      0.21705050	     10.06257765	      4.12097682	    -10.60365459	    -19.95405673	      0.98440452	      4.11446608	      0.01023875	     -0.40000000	      0.00000000	     -2.33761645	      0.00000000	      0.00000000	     37.74311857	     -4.79047806	     -4.74269778	   -107.35321434	      0.98440452	      4.11446608	      0.00000000	     -0.40000000	      0.00000000	    -15.02558907	      0.00000000	      0.00000000	    -22.21212741	      9.19051482	     -2.15704874	     -8.62081339	    -22.96489374	     17.41931981	     46.72961149	     78.90854626	      0.00000000	      0.00000000	    -13.64588748	    -18.72665385	     12.25670315	     58.57373259	     83.02974704	      0.00000000	      0.00000000
      0.53000000	     -1.77139177	     -2.63041024	      6.13038449	     -1.14394134	      0.99883041	      0.21705815	     10.03308043	      4.13415013	    -10.72997566	    -19.82264396	      0.98440452	      4.11446608	      0.01016354	     -0.40000000	      0.00000000	     -2.33070328	      0.00000000	      0.00000000	     37.78857968	     -4.82620579	     -4.71705697	   -107.66160551	      0.98440452	      4.11446608	      0.00000000	     -0.40000000	      0.00000000	    -15.29799608	      0.00000000	      0.00000000	    -22.23697649	      9.24970571	     -2.28712902	     -8.42631703	    -23.06692042	     18.04673190	     46.57710351	     79.03861249	      0.00000000	      0.00000000	    -13.68783803	    -18.87297013	     12.30563750	     58.89583843	     83.10959239	      0.00000000	      0.00000000
      0.54000000	     -1.81105713	     -2.60816227	      6.11235613	     -1.14340671	      0.99901069	      0.21707499	      9.98941706	      4.08065045	    -10.85077864	    -19.74381474	      0.98440452	      4.11446608	      0.01008553	     -0.40000000	      0.00000000	     -2.52791866	      0.00000000	      0.00000000	     37.74170790	     -4.88849318	     -4.82364497	   -107.90598251	      0.98440452	      4.11446608	      0.00000000	     -0.40000000	      0.00000000	    -15.50916316	      0.00000000	      0.00000000	    -22.31474142	      9.24400602	     -2.27546356	     -8.30982644	    -23.10880422	     18.40198815	     46.43111758	     78.92897503	      0.00000000	      0.00000000	    -13.65663155	    -18.85803550	     12.13400019	     59.04157658	     83.05752235	      0.00000000	      0.00000000
      0.55000000	     -1.84247117	     -2.45913913	      6.03702675	     -1.14293827	      0.99924960	      0.21718372	      9.90776560	      3.90937926	    -10.82108453	    -19.63709174	      0.98440452	      4.11446608	      0.00994683	     -0.40000000	      0.00000000	     -2.60090903	      0.00000000	      0.00000000	     37.67413033	     -4.81808309	     -4.95763598	   -108.13711741	      0.98440452	      4.11446608	      0.00000000	     -0.40000000	      0.00000000	    -15.35506103	      0.00000000	      0.00000000	    -22.42917867	      9.05778102	     -2.28868878	     -8.24533698	    -23.15114551	     18.64139297	     46.41597806	     79.65736560	      0.00000000	      0.00000000	    -13.83836647	    -18.56438525	     11.10986810	     59.31265582	     84.55639147	      0.00000000	      0.00000000
      0.56000000	     -1.81505274	     -2.26425498	      5.93523792	     -1.14237888	      0.99959267	      0.21708290	      9.71869762	      3.70379890	    -10.73196077	    -19.47205056	      0.98440452	      4.11446608	      0.00988262	     -0.40000000	      0.00000000	     -2.58370817	      0.00000000	      0.00000000	     37.48851514	     -4.71425909	     -5.20850538	   -108.34856777	      0.98440452	      4.11446608	      0.00000000	     -0.40000000	      0.00000000	    -14.91575260	      0.00000000	      0.00000000	    -22.63860503	      8.90001051	     -2.24500496	     -8.43494010	    -23.10679920	     18.30749307	     46.85033923	     77.96175417	      0.00000000	      0.00000000	    -13.82278198	    -18.45699655	     11.00809903	     59.57163007	     82.07124152	      0.00000000	      0.00000000
      0.57000000	     -2.06493614	     -2.36328896	      6.01090323	     -1.14189612	      0.99942214	      0.21734292	      9.93209839	      3.76876267	    -10.97505752	    -19.39078135	      0.98440452	      4.11446608	      0.00957642	     -0.40000000	      0.00000000	     -2.63091783	      0.00000000	      0.00000000	     37.74948761	     -4.84051695	     -5.03856430	   -108.53208342	      0.98440452	      4.11446608	      0.00000000	     -0.40000000	      0.00000000	    -15.62937640	      0.00000000	      0.00000000	    -22.43931423	      8.96100151	     -2.20935961	     -8.22441643	    -23.23666502	     19.11867250	     46.40297980	     79.30882859	      0.00000000	      0.00000000	    -13.70156320	    -18.66843445	     11.21336934	     59.62189737	     83.85879891	      0.00000000	      0.00000000
      0.58000000	     -2.18789976	     -2.33168131	      5.88526347	     -1.14125859	      0.99946258	      0.21775805	      9.98675693	      3.73775688	    -11.11767580	    -19.36443604	      0.98440452	      4.11446608	      0.00956234	     -0.40000000	      0.00000000	     -2.63114159	      0.00000000	      0.00000000	     37.74377676	     -4.97191066	     -5.12720683	   -108.68560334	      0.98440452	      4.11446608	      0.00000000	     -0.40000000	      0.00000000	    -15.68290519	      0.00000000	      0.00000000	    -22.45160332	      8.84313632	     -2.06649591	     -8.20609702	    -23.20035892	     19.23133541	     46.32322461	     78.98131957	      0.00000000	      0.00000000	    -13.72462463	    -18.71580336	     11.20285810	     59.96012292	     83.30958390	      0.00000000	      0.00000000
      0.59000000	     -2.43991680	     -2.20465537	      5.77912655	     -1.14088037	      0.99936478	      0.21776550	     10.15308915	      3.58579968	    -11.03904492	    -19.24420012	      0.98440452	      4.11446608	      0.00941854	     -0.40000000	      0.00000000	     -2.69702887	      0.00000000	      0.00000000	     37.91041473	     -4.88002313	     -5.25677173	   -108.83348004	      0.98440452	      4.11446608	      0.00000000	     -0.40000000	      0.00000000	    -15.48799677	      0.00000000	      0.00000000	    -22.38035987	      8.72524027	     -2.24241961	     -8.11247735	    -23.28481754	     19.40556982	     46.49926956	     79.60987235	      0.00000000	      0.00000000	    -14.05867084	    -18.28898660	     10.01250974	     60.20969799	     84.35837020	      0.00000000	      0.00000000
      0.60000000	     -2.42520350	     -1.98226149	      5.62387922	     -1.14028496	      0.99977989	      0.21777886	      9.96680544	      3.37456376	    -10.93513511	    -19.04477205	      0.98440452	      4.11446608	      0.00933049	     -0.40000000	      0.00000000	     -2.67142116	      0.00000000	      0.00000000	     37.67679835	     -4.75336903	     -5.47635004	   -108.94738215	      0.98440452	      4.11446608	      0.00000000	     -0.40000000	      0.00000000	    -15.01608070	      0.00000000	      0.00000000	    -22.61667780	      8.51902048	     -2.20880044	     -8.30851046	    -23.22778019	     19.03418448	     47.04352248	     77.71368830	      0.00000000	      0.00000000	    -14.01974778	    -18.19538488	      9.91961935	     60.45055352	     81.67418335	      0.00000000	      0.00000000
